<svg width="1140" height="360" viewBox="0 0 1140 360" fill="none" xmlns="http://www.w3.org/2000/svg">
<path d="M30 7.5H1110C1122.43 7.50001 1132.5 17.5736 1132.5 30V330C1132.5 342.426 1122.43 352.5 1110 352.5H30C17.5736 352.5 7.5 342.426 7.5 330V30C7.5 17.5736 17.5736 7.5 30 7.5Z" stroke="#D0D0D0" stroke-width="15"/>
<mask id="path-2-inside-1_255_1177" fill="white">
<path d="M969 102C969 110.284 975.716 117 984 117H1101C1109.28 117 1116 123.716 1116 132V237C1116 245.284 1109.28 252 1101 252H915C906.716 252 900 245.284 900 237V39C900 30.7157 906.716 24 915 24H954C962.284 24 969 30.7157 969 39V102Z"/>
</mask>
<path d="M984 117V129H1101V117V105H984V117ZM1116 132H1104V237H1116H1128V132H1116ZM1101 252V240H915V252V264H1101V252ZM900 237H912V39H900H888V237H900ZM915 24V36H954V24V12H915V24ZM969 39H957V102H969H981V39H969ZM954 24V36C955.657 36 957 37.3431 957 39H969H981C981 24.0883 968.912 12 954 12V24ZM900 39H912C912 37.3431 913.343 36 915 36V24V12C900.088 12 888 24.0883 888 39H900ZM915 252V240C913.343 240 912 238.657 912 237H900H888C888 251.912 900.088 264 915 264V252ZM1116 237H1104C1104 238.657 1102.66 240 1101 240V252V264C1115.91 264 1128 251.912 1128 237H1116ZM1101 117V129C1102.66 129 1104 130.343 1104 132H1116H1128C1128 117.088 1115.91 105 1101 105V117ZM984 117V105C982.343 105 981 103.657 981 102H969H957C957 116.912 969.088 129 984 129V117Z" fill="#94B794" mask="url(#path-2-inside-1_255_1177)"/>
<rect opacity="0.5" x="987" y="30" width="123" height="69" rx="9" stroke="#4FA770" stroke-width="12"/>
<g opacity="0.5">
<mask id="path-5-inside-2_255_1177" fill="white">
<path d="M894 237C894 245.284 887.284 252 879 252H753C744.716 252 738 245.284 738 237V39C738 30.7157 744.716 24 753 24H879C887.284 24 894 30.7157 894 39V237Z"/>
</mask>
<path d="M879 252V240H753V252V264H879V252ZM738 237H750V39H738H726V237H738ZM753 24V36H879V24V12H753V24ZM894 39H882V237H894H906V39H894ZM879 24V36C880.657 36 882 37.3431 882 39H894H906C906 24.0883 893.912 12 879 12V24ZM738 39H750C750 37.3431 751.343 36 753 36V24V12C738.088 12 726 24.0883 726 39H738ZM753 252V240C751.343 240 750 238.657 750 237H738H726C726 251.912 738.088 264 753 264V252ZM879 252V264C893.912 264 906 251.912 906 237H894H882C882 238.657 880.657 240 879 240V252Z" fill="#9FC3A6" mask="url(#path-5-inside-2_255_1177)"/>
</g>
<mask id="path-7-inside-3_255_1177" fill="white">
<path d="M159 246C159 254.284 165.716 261 174 261H225C233.284 261 240 254.284 240 246V198C240 189.716 246.716 183 255 183H312C320.284 183 327 189.716 327 198V321C327 329.284 320.284 336 312 336H39C30.7157 336 24 329.284 24 321V39C24 30.7157 30.7157 24 39 24H144C152.284 24 159 30.7157 159 39V246Z"/>
</mask>
<path d="M174 261V273H225V261V249H174V261ZM240 246H252V198H240H228V246H240ZM255 183V195H312V183V171H255V183ZM327 198H315V321H327H339V198H327ZM312 336V324H39V336V348H312V336ZM24 321H36V39H24H12V321H24ZM39 24V36H144V24V12H39V24ZM159 39H147V246H159H171V39H159ZM144 24V36C145.657 36 147 37.3431 147 39H159H171C171 24.0883 158.912 12 144 12V24ZM24 39H36C36 37.3431 37.3431 36 39 36V24V12C24.0883 12 12 24.0883 12 39H24ZM39 336V324C37.3431 324 36 322.657 36 321H24H12C12 335.912 24.0883 348 39 348V336ZM327 321H315C315 322.657 313.657 324 312 324V336V348C326.912 348 339 335.912 339 321H327ZM312 183V195C313.657 195 315 196.343 315 198H327H339C339 183.088 326.912 171 312 171V183ZM240 198H252C252 196.343 253.343 195 255 195V183V171C240.088 171 228 183.088 228 198H240ZM225 261V273C239.912 273 252 260.912 252 246H240H228C228 247.657 226.657 249 225 249V261ZM174 261V249C172.343 249 171 247.657 171 246H159H147C147 260.912 159.088 273 174 273V261Z" fill="#9FC3A6" mask="url(#path-7-inside-3_255_1177)"/>
<rect opacity="0.5" x="1110" y="264" width="66" height="366" rx="9" transform="rotate(90 1110 264)" stroke="#74D086" stroke-width="12"/>
<mask id="path-10-inside-4_255_1177" fill="white">
<path d="M312 24C320.284 24 327 30.7157 327 39V162C327 170.284 320.284 177 312 177H249C240.716 177 234 183.716 234 192V237C234 245.284 227.284 252 219 252H186C177.716 252 171 245.284 171 237V39C171 30.7157 177.716 24 186 24H312Z"/>
</mask>
<path d="M327 39H315V162H327H339V39H327ZM312 177V165H249V177V189H312V177ZM234 192H222V237H234H246V192H234ZM219 252V240H186V252V264H219V252ZM171 237H183V39H171H159V237H171ZM186 24V36H312V24V12H186V24ZM171 39H183C183 37.3431 184.343 36 186 36V24V12C171.088 12 159 24.0883 159 39H171ZM186 252V240C184.343 240 183 238.657 183 237H171H159C159 251.912 171.088 264 186 264V252ZM234 237H222C222 238.657 220.657 240 219 240V252V264C233.912 264 246 251.912 246 237H234ZM249 177V165C234.088 165 222 177.088 222 192H234H246C246 190.343 247.343 189 249 189V177ZM327 162H315C315 163.657 313.657 165 312 165V177V189C326.912 189 339 176.912 339 162H327ZM327 39H339C339 24.0883 326.912 12 312 12V24V36C313.657 36 315 37.3431 315 39H327Z" fill="#7BA27E" mask="url(#path-10-inside-4_255_1177)"/>
<rect x="432" y="213" width="120" height="96" rx="12" transform="rotate(90 432 213)" fill="#6C9674" stroke="#35693F" stroke-width="6"/>
<rect x="471" y="27" width="174" height="135" rx="12" transform="rotate(90 471 27)" fill="#9FC3A6" stroke="#35693F" stroke-width="6"/>
<rect x="729" y="27" width="114" height="246" rx="12" transform="rotate(90 729 27)" fill="#6C9674" stroke="#35693F" stroke-width="6"/>
<mask id="path-15-inside-5_255_1177" fill="white">
<path d="M732 321C732 329.284 725.284 336 717 336H501C492.716 336 486 329.284 486 321V273C486 264.716 492.716 258 501 258H510C518.284 258 525 251.284 525 243V165C525 156.716 531.716 150 540 150H717C725.284 150 732 156.716 732 165V321Z"/>
</mask>
<path d="M732 321C732 329.284 725.284 336 717 336H501C492.716 336 486 329.284 486 321V273C486 264.716 492.716 258 501 258H510C518.284 258 525 251.284 525 243V165C525 156.716 531.716 150 540 150H717C725.284 150 732 156.716 732 165V321Z" fill="#9FC3A6"/>
<path d="M717 336V330H501V336V342H717V336ZM486 321H492V273H486H480V321H486ZM501 258V264H510V258V252H501V258ZM525 243H531V165H525H519V243H525ZM540 150V156H717V150V144H540V150ZM732 165H726V321H732H738V165H732ZM717 150V156C721.971 156 726 160.029 726 165H732H738C738 153.402 728.598 144 717 144V150ZM525 165H531C531 160.029 535.029 156 540 156V150V144C528.402 144 519 153.402 519 165H525ZM510 258V264C521.598 264 531 254.598 531 243H525H519C519 247.971 514.971 252 510 252V258ZM486 273H492C492 268.029 496.029 264 501 264V258V252C489.402 252 480 261.402 480 273H486ZM501 336V330C496.029 330 492 325.971 492 321H486H480C480 332.598 489.402 342 501 342V336ZM717 336V342C728.598 342 738 332.598 738 321H732H726C726 325.971 721.971 330 717 330V336Z" fill="#1E4726" mask="url(#path-15-inside-5_255_1177)"/>
<path d="M519 234C519 242.284 512.284 249 504 249H495C486.716 249 480 255.716 480 264V321C480 329.284 473.284 336 465 336H456C447.716 336 441 329.284 441 321V225C441 216.716 447.716 210 456 210H465C473.284 210 480 203.284 480 195V165C480 156.716 486.716 150 495 150H504C512.284 150 519 156.716 519 165V234Z" fill="#1E4726"/>
</svg>
